<?xml version="1.0" encoding="UTF-8" standalone="no"?>
<!DOCTYPE svg PUBLIC "-//W3C//DTD SVG 1.1//EN"
 "http://www.w3.org/Graphics/SVG/1.1/DTD/svg11.dtd">
<!-- Generated by graphviz version 9.0.0 (20230911.1827)
 -->
<!-- Title: dependency&#45;cruiser output Pages: 1 -->
<svg width="848pt" height="212pt"
 viewBox="0.00 0.00 847.75 212.00" xmlns="http://www.w3.org/2000/svg" xmlns:xlink="http://www.w3.org/1999/xlink">
<g id="graph0" class="graph" transform="scale(1 1) rotate(0) translate(4 208)">
<title>dependency&#45;cruiser output</title>
<polygon fill="white" stroke="none" points="-4,4 -4,-208 843.75,-208 843.75,4 -4,4"/>
<!-- output/command/commands/GameCommands.js -->
<g id="node1" class="node">
<title>output/command/commands/GameCommands.js</title>
<g id="a_node1"><a xlink:href="../../output/command/commands/GameCommands.js" xlink:title="GameCommands.js">
<path fill="#ffffcc" stroke="none" d="M346.21,-204C346.21,-204 226.04,-204 226.04,-204 221.71,-204 217.38,-199.67 217.38,-195.33 217.38,-195.33 217.38,-186.67 217.38,-186.67 217.38,-182.33 221.71,-178 226.04,-178 226.04,-178 346.21,-178 346.21,-178 350.54,-178 354.88,-182.33 354.88,-186.67 354.88,-186.67 354.88,-195.33 354.88,-195.33 354.88,-199.67 350.54,-204 346.21,-204"/>
<text text-anchor="start" x="225.38" y="-192.45" font-family="Helvetica,sans-Serif" font-size="9.00">output/command/commands/</text>
<text text-anchor="start" x="244.5" y="-183.45" font-family="Helvetica,sans-Serif" font-weight="bold" font-size="9.00">GameCommands.js</text>
</a>
</g>
</g>
<!-- output/game/managers/AlertManager.js -->
<g id="node2" class="node">
<title>output/game/managers/AlertManager.js</title>
<g id="a_node2"><a xlink:href="../../output/game/managers/AlertManager.js" xlink:title="AlertManager.js">
<path fill="#ffffcc" stroke="none" d="M502.08,-96C502.08,-96 404.42,-96 404.42,-96 400.08,-96 395.75,-91.67 395.75,-87.33 395.75,-87.33 395.75,-78.67 395.75,-78.67 395.75,-74.33 400.08,-70 404.42,-70 404.42,-70 502.08,-70 502.08,-70 506.42,-70 510.75,-74.33 510.75,-78.67 510.75,-78.67 510.75,-87.33 510.75,-87.33 510.75,-91.67 506.42,-96 502.08,-96"/>
<text text-anchor="start" x="403.75" y="-84.45" font-family="Helvetica,sans-Serif" font-size="9.00">output/game/managers/</text>
<text text-anchor="start" x="419.5" y="-75.45" font-family="Helvetica,sans-Serif" font-weight="bold" font-size="9.00">AlertManager.js</text>
</a>
</g>
</g>
<!-- output/command/commands/GameCommands.js&#45;&gt;output/game/managers/AlertManager.js -->
<g id="edge1" class="edge">
<title>output/command/commands/GameCommands.js&#45;&gt;output/game/managers/AlertManager.js</title>
<path fill="none" stroke="#000000" stroke-width="2" stroke-opacity="0.200000" d="M355.35,-186.67C408.46,-186.67 472.75,-186.67 472.75,-186.67 472.75,-186.67 472.75,-105.16 472.75,-105.16"/>
<polygon fill="#000000" fill-opacity="0.200000" stroke="#000000" stroke-width="2" stroke-opacity="0.200000" points="474.85,-105.16 472.75,-99.16 470.65,-105.16 474.85,-105.16"/>
</g>
<!-- output/command/components/GeneralComponents.js -->
<g id="node3" class="node">
<title>output/command/components/GeneralComponents.js</title>
<g id="a_node3"><a xlink:href="../../output/command/components/GeneralComponents.js" xlink:title="GeneralComponents.js">
<path fill="#ffffcc" stroke="none" d="M831.08,-80C831.08,-80 706.42,-80 706.42,-80 702.08,-80 697.75,-75.67 697.75,-71.33 697.75,-71.33 697.75,-62.67 697.75,-62.67 697.75,-58.33 702.08,-54 706.42,-54 706.42,-54 831.08,-54 831.08,-54 835.42,-54 839.75,-58.33 839.75,-62.67 839.75,-62.67 839.75,-71.33 839.75,-71.33 839.75,-75.67 835.42,-80 831.08,-80"/>
<text text-anchor="start" x="705.75" y="-68.45" font-family="Helvetica,sans-Serif" font-size="9.00">output/command/components/</text>
<text text-anchor="start" x="720.38" y="-59.45" font-family="Helvetica,sans-Serif" font-weight="bold" font-size="9.00">GeneralComponents.js</text>
</a>
</g>
</g>
<!-- output/command/commands/GameCommands.js&#45;&gt;output/command/components/GeneralComponents.js -->
<g id="edge2" class="edge">
<title>output/command/commands/GameCommands.js&#45;&gt;output/command/components/GeneralComponents.js</title>
<path fill="none" stroke="#000000" stroke-width="2" stroke-opacity="0.200000" d="M355.27,-195.33C488.72,-195.33 768.75,-195.33 768.75,-195.33 768.75,-195.33 768.75,-89.28 768.75,-89.28"/>
<polygon fill="#000000" fill-opacity="0.200000" stroke="#000000" stroke-width="2" stroke-opacity="0.200000" points="770.85,-89.28 768.75,-83.28 766.65,-89.28 770.85,-89.28"/>
</g>
<!-- output/game/managers/AlertManager.js&#45;&gt;output/command/components/GeneralComponents.js -->
<g id="edge5" class="edge">
<title>output/game/managers/AlertManager.js&#45;&gt;output/command/components/GeneralComponents.js</title>
<path fill="none" stroke="#000000" stroke-width="2" stroke-opacity="0.200000" d="M511.12,-76.67C511.12,-76.67 688.4,-76.67 688.4,-76.67"/>
<polygon fill="#000000" fill-opacity="0.200000" stroke="#000000" stroke-width="2" stroke-opacity="0.200000" points="688.4,-78.77 694.4,-76.67 688.4,-74.57 688.4,-78.77"/>
</g>
<!-- output/game/managers/Manager.js -->
<g id="node6" class="node">
<title>output/game/managers/Manager.js</title>
<g id="a_node6"><a xlink:href="../../output/game/managers/Manager.js" xlink:title="Manager.js">
<path fill="#ffffcc" stroke="none" d="M653.08,-64C653.08,-64 555.42,-64 555.42,-64 551.08,-64 546.75,-59.67 546.75,-55.33 546.75,-55.33 546.75,-46.67 546.75,-46.67 546.75,-42.33 551.08,-38 555.42,-38 555.42,-38 653.08,-38 653.08,-38 657.42,-38 661.75,-42.33 661.75,-46.67 661.75,-46.67 661.75,-55.33 661.75,-55.33 661.75,-59.67 657.42,-64 653.08,-64"/>
<text text-anchor="start" x="554.75" y="-52.45" font-family="Helvetica,sans-Serif" font-size="9.00">output/game/managers/</text>
<text text-anchor="start" x="580.62" y="-43.45" font-family="Helvetica,sans-Serif" font-weight="bold" font-size="9.00">Manager.js</text>
</a>
</g>
</g>
<!-- output/game/managers/AlertManager.js&#45;&gt;output/game/managers/Manager.js -->
<g id="edge6" class="edge">
<title>output/game/managers/AlertManager.js&#45;&gt;output/game/managers/Manager.js</title>
<path fill="none" stroke="#000000" stroke-width="2" stroke-opacity="0.200000" d="M510.96,-73.33C553.77,-73.33 604.75,-73.33 604.75,-73.33 604.75,-73.33 604.75,-72.42 604.75,-72.42"/>
<polygon fill="#000000" fill-opacity="0.200000" stroke="#000000" stroke-width="2" stroke-opacity="0.200000" points="606.85,-73.28 604.75,-67.28 602.65,-73.28 606.85,-73.28"/>
</g>
<!-- output/command/commands/UserCommands.js -->
<g id="node4" class="node">
<title>output/command/commands/UserCommands.js</title>
<g id="a_node4"><a xlink:href="../../output/command/commands/UserCommands.js" xlink:title="UserCommands.js">
<path fill="#ffffcc" stroke="none" d="M346.21,-166C346.21,-166 226.04,-166 226.04,-166 221.71,-166 217.38,-161.67 217.38,-157.33 217.38,-157.33 217.38,-148.67 217.38,-148.67 217.38,-144.33 221.71,-140 226.04,-140 226.04,-140 346.21,-140 346.21,-140 350.54,-140 354.88,-144.33 354.88,-148.67 354.88,-148.67 354.88,-157.33 354.88,-157.33 354.88,-161.67 350.54,-166 346.21,-166"/>
<text text-anchor="start" x="225.38" y="-154.45" font-family="Helvetica,sans-Serif" font-size="9.00">output/command/commands/</text>
<text text-anchor="start" x="246.75" y="-145.45" font-family="Helvetica,sans-Serif" font-weight="bold" font-size="9.00">UserCommands.js</text>
</a>
</g>
</g>
<!-- output/command/commands/UserCommands.js&#45;&gt;output/game/managers/AlertManager.js -->
<g id="edge3" class="edge">
<title>output/command/commands/UserCommands.js&#45;&gt;output/game/managers/AlertManager.js</title>
<path fill="none" stroke="#000000" stroke-width="2" stroke-opacity="0.200000" d="M355.22,-153C394.03,-153 434.75,-153 434.75,-153 434.75,-153 434.75,-105.52 434.75,-105.52"/>
<polygon fill="#000000" fill-opacity="0.200000" stroke="#000000" stroke-width="2" stroke-opacity="0.200000" points="436.85,-105.52 434.75,-99.52 432.65,-105.52 436.85,-105.52"/>
</g>
<!-- output/command/components/PaginationStringSelectMenu.js -->
<g id="node5" class="node">
<title>output/command/components/PaginationStringSelectMenu.js</title>
<g id="a_node5"><a xlink:href="../../output/command/components/PaginationStringSelectMenu.js" xlink:title="PaginationStringSelectMenu.js">
<path fill="#ffffcc" stroke="none" d="M350.71,-128C350.71,-128 221.54,-128 221.54,-128 217.21,-128 212.88,-123.67 212.88,-119.33 212.88,-119.33 212.88,-110.67 212.88,-110.67 212.88,-106.33 217.21,-102 221.54,-102 221.54,-102 350.71,-102 350.71,-102 355.04,-102 359.38,-106.33 359.38,-110.67 359.38,-110.67 359.38,-119.33 359.38,-119.33 359.38,-123.67 355.04,-128 350.71,-128"/>
<text text-anchor="start" x="223.12" y="-116.45" font-family="Helvetica,sans-Serif" font-size="9.00">output/command/components/</text>
<text text-anchor="start" x="220.88" y="-107.45" font-family="Helvetica,sans-Serif" font-weight="bold" font-size="9.00">PaginationStringSelectMenu.js</text>
</a>
</g>
</g>
<!-- output/command/components/PaginationStringSelectMenu.js&#45;&gt;output/game/managers/AlertManager.js -->
<g id="edge4" class="edge">
<title>output/command/components/PaginationStringSelectMenu.js&#45;&gt;output/game/managers/AlertManager.js</title>
<path fill="none" stroke="#000000" stroke-width="2" stroke-opacity="0.200000" d="M354.75,-101.65C354.75,-95.48 354.75,-89.5 354.75,-89.5 354.75,-89.5 386.36,-89.5 386.36,-89.5"/>
<polygon fill="#000000" fill-opacity="0.200000" stroke="#000000" stroke-width="2" stroke-opacity="0.200000" points="386.36,-91.6 392.36,-89.5 386.36,-87.4 386.36,-91.6"/>
</g>
<!-- output/game/managers/Manager.js&#45;&gt;output/command/components/GeneralComponents.js -->
<g id="edge13" class="edge">
<title>output/game/managers/Manager.js&#45;&gt;output/command/components/GeneralComponents.js</title>
<g id="a_edge13"><a xlink:title="no&#45;circular">
<path fill="none" stroke="red" stroke-width="2" d="M662.25,-59C662.25,-59 678.61,-59 678.61,-59"/>
<polygon fill="red" stroke="red" stroke-width="2" points="688.41,-61.1 694.41,-59 688.41,-56.9 688.41,-61.1"/>
<polyline fill="none" stroke="red" stroke-width="2" points="687.41,-59 684.41,-59"/>
<ellipse fill="none" stroke="red" stroke-width="2" cx="681.01" cy="-59" rx="2.4" ry="2.4"/>
</a>
</g>
<text text-anchor="middle" x="692.18" y="-50.45" font-family="Helvetica,sans-Serif" font-size="9.00" fill="red">no&#45;circular</text>
</g>
<!-- output/game/managers/BattleManager/index.js -->
<g id="node7" class="node">
<title>output/game/managers/BattleManager/index.js</title>
<g id="a_node7"><a xlink:href="../../output/game/managers/BattleManager/index.js" xlink:title="index.js">
<path fill="#ffffcc" stroke="none" d="M167.83,-64C167.83,-64 8.67,-64 8.67,-64 4.33,-64 0,-59.67 0,-55.33 0,-55.33 0,-46.67 0,-46.67 0,-42.33 4.33,-38 8.67,-38 8.67,-38 167.83,-38 167.83,-38 172.17,-38 176.5,-42.33 176.5,-46.67 176.5,-46.67 176.5,-55.33 176.5,-55.33 176.5,-59.67 172.17,-64 167.83,-64"/>
<text text-anchor="start" x="8" y="-52.45" font-family="Helvetica,sans-Serif" font-size="9.00">output/game/managers/BattleManager/</text>
<text text-anchor="start" x="71.75" y="-43.45" font-family="Helvetica,sans-Serif" font-weight="bold" font-size="9.00">index.js</text>
</a>
</g>
</g>
<!-- output/game/managers/BattleManager/index.js&#45;&gt;output/game/managers/AlertManager.js -->
<g id="edge9" class="edge">
<title>output/game/managers/BattleManager/index.js&#45;&gt;output/game/managers/AlertManager.js</title>
<path fill="none" stroke="#000000" stroke-width="2" stroke-opacity="0.200000" d="M88.75,-64.39C88.75,-73.15 88.75,-83 88.75,-83 88.75,-83 386.47,-83 386.47,-83"/>
<polygon fill="#000000" fill-opacity="0.200000" stroke="#000000" stroke-width="2" stroke-opacity="0.200000" points="386.47,-85.1 392.47,-83 386.47,-80.9 386.47,-85.1"/>
</g>
<!-- output/game/managers/BattleManager/index.js&#45;&gt;output/command/components/GeneralComponents.js -->
<g id="edge7" class="edge">
<title>output/game/managers/BattleManager/index.js&#45;&gt;output/command/components/GeneralComponents.js</title>
<path fill="none" stroke="#000000" stroke-width="2" stroke-opacity="0.200000" d="M59.75,-37.58C59.75,-33.47 59.75,-30 59.75,-30 59.75,-30 768.75,-30 768.75,-30 768.75,-30 768.75,-44.62 768.75,-44.62"/>
<polygon fill="#000000" fill-opacity="0.200000" stroke="#000000" stroke-width="2" stroke-opacity="0.200000" points="766.65,-44.62 768.75,-50.62 770.85,-44.62 766.65,-44.62"/>
</g>
<!-- output/game/managers/BattleManager/index.js&#45;&gt;output/command/components/PaginationStringSelectMenu.js -->
<g id="edge8" class="edge">
<title>output/game/managers/BattleManager/index.js&#45;&gt;output/command/components/PaginationStringSelectMenu.js</title>
<g id="a_edge8"><a xlink:title="no&#45;circular">
<path fill="none" stroke="red" stroke-width="2" d="M177,-55.33C201.13,-55.33 220.75,-55.33 220.75,-55.33 220.75,-55.33 220.75,-82.93 220.75,-82.93"/>
<polygon fill="red" stroke="red" stroke-width="2" points="218.65,-92.73 220.75,-98.73 222.85,-92.73 218.65,-92.73"/>
<polyline fill="none" stroke="red" stroke-width="2" points="220.75,-91.73 220.75,-88.73"/>
<ellipse fill="none" stroke="red" stroke-width="2" cx="220.75" cy="-85.33" rx="2.4" ry="2.4"/>
</a>
</g>
<text text-anchor="middle" x="190.92" y="-58.03" font-family="Helvetica,sans-Serif" font-size="9.00" fill="red">no&#45;circular</text>
</g>
<!-- output/game/managers/BattleManager/index.js&#45;&gt;output/game/managers/Manager.js -->
<g id="edge11" class="edge">
<title>output/game/managers/BattleManager/index.js&#45;&gt;output/game/managers/Manager.js</title>
<path fill="none" stroke="#000000" stroke-width="2" stroke-opacity="0.200000" d="M117.75,-37.61C117.75,-35.5 117.75,-34 117.75,-34 117.75,-34 604.75,-34 604.75,-34 604.75,-34 604.75,-34.36 604.75,-34.36"/>
<polygon fill="#000000" fill-opacity="0.200000" stroke="#000000" stroke-width="2" stroke-opacity="0.200000" points="602.65,-28.58 604.75,-34.58 606.85,-28.58 602.65,-28.58"/>
</g>
<!-- output/game/managers/ItemSelectManager.js -->
<g id="node8" class="node">
<title>output/game/managers/ItemSelectManager.js</title>
<g id="a_node8"><a xlink:href="../../output/game/managers/ItemSelectManager.js" xlink:title="ItemSelectManager.js">
<path fill="#ffffcc" stroke="none" d="M334.96,-64C334.96,-64 237.29,-64 237.29,-64 232.96,-64 228.62,-59.67 228.62,-55.33 228.62,-55.33 228.62,-46.67 228.62,-46.67 228.62,-42.33 232.96,-38 237.29,-38 237.29,-38 334.96,-38 334.96,-38 339.29,-38 343.62,-42.33 343.62,-46.67 343.62,-46.67 343.62,-55.33 343.62,-55.33 343.62,-59.67 339.29,-64 334.96,-64"/>
<text text-anchor="start" x="236.62" y="-52.45" font-family="Helvetica,sans-Serif" font-size="9.00">output/game/managers/</text>
<text text-anchor="start" x="239.62" y="-43.45" font-family="Helvetica,sans-Serif" font-weight="bold" font-size="9.00">ItemSelectManager.js</text>
</a>
</g>
</g>
<!-- output/game/managers/BattleManager/index.js&#45;&gt;output/game/managers/ItemSelectManager.js -->
<g id="edge10" class="edge">
<title>output/game/managers/BattleManager/index.js&#45;&gt;output/game/managers/ItemSelectManager.js</title>
<g id="a_edge10"><a xlink:title="no&#45;circular">
<path fill="none" stroke="red" stroke-width="2" d="M176.77,-46.67C176.77,-46.67 209.52,-46.67 209.52,-46.67"/>
<polygon fill="red" stroke="red" stroke-width="2" points="219.32,-48.77 225.32,-46.67 219.32,-44.57 219.32,-48.77"/>
<polyline fill="none" stroke="red" stroke-width="2" points="218.32,-46.67 215.32,-46.67"/>
<ellipse fill="none" stroke="red" stroke-width="2" cx="211.92" cy="-46.67" rx="2.4" ry="2.4"/>
</a>
</g>
<text text-anchor="middle" x="214.89" y="-38.12" font-family="Helvetica,sans-Serif" font-size="9.00" fill="red">no&#45;circular</text>
</g>
<!-- output/game/managers/ItemSelectManager.js&#45;&gt;output/game/managers/AlertManager.js -->
<g id="edge12" class="edge">
<title>output/game/managers/ItemSelectManager.js&#45;&gt;output/game/managers/AlertManager.js</title>
<path fill="none" stroke="#000000" stroke-width="2" stroke-opacity="0.200000" d="M343.81,-51C392.3,-51 453.75,-51 453.75,-51 453.75,-51 453.75,-60.59 453.75,-60.59"/>
<polygon fill="#000000" fill-opacity="0.200000" stroke="#000000" stroke-width="2" stroke-opacity="0.200000" points="451.65,-60.59 453.75,-66.59 455.85,-60.59 451.65,-60.59"/>
</g>
<!-- output/game/managers/actions/BaseAction.js -->
<g id="node9" class="node">
<title>output/game/managers/actions/BaseAction.js</title>
<g id="a_node9"><a xlink:href="../../output/game/managers/actions/BaseAction.js" xlink:title="BaseAction.js">
<path fill="#ffffcc" stroke="none" d="M351.08,-26C351.08,-26 221.17,-26 221.17,-26 216.83,-26 212.5,-21.67 212.5,-17.33 212.5,-17.33 212.5,-8.67 212.5,-8.67 212.5,-4.33 216.83,0 221.17,0 221.17,0 351.08,0 351.08,0 355.42,0 359.75,-4.33 359.75,-8.67 359.75,-8.67 359.75,-17.33 359.75,-17.33 359.75,-21.67 355.42,-26 351.08,-26"/>
<text text-anchor="start" x="220.5" y="-14.45" font-family="Helvetica,sans-Serif" font-size="9.00">output/game/managers/actions/</text>
<text text-anchor="start" x="256.88" y="-5.45" font-family="Helvetica,sans-Serif" font-weight="bold" font-size="9.00">BaseAction.js</text>
</a>
</g>
</g>
<!-- output/game/managers/actions/BaseAction.js&#45;&gt;output/game/managers/AlertManager.js -->
<g id="edge14" class="edge">
<title>output/game/managers/actions/BaseAction.js&#45;&gt;output/game/managers/AlertManager.js</title>
<path fill="none" stroke="#000000" stroke-width="2" stroke-opacity="0.200000" d="M349.75,-26.47C349.75,-45.11 349.75,-76.5 349.75,-76.5 349.75,-76.5 386.42,-76.5 386.42,-76.5"/>
<polygon fill="#000000" fill-opacity="0.200000" stroke="#000000" stroke-width="2" stroke-opacity="0.200000" points="386.42,-78.6 392.42,-76.5 386.42,-74.4 386.42,-78.6"/>
</g>
</g>
</svg>
